<svg xmlns="http://www.w3.org/2000/svg" width="443.447" height="99.6" viewBox="0 0 443.447 99.6">
  <path id="Path_22" data-name="Path 22" d="M74.648-96.934a8.487,8.487,0,0,0-6.221,2.6A8.455,8.455,0,0,0,65.9-88.115v47.51a23.521,23.521,0,0,1-7.178,16.885A23.452,23.452,0,0,1,41.7-16.748a23.11,23.11,0,0,1-16.953-7.041,23.239,23.239,0,0,1-7.178-16.953V-88.115a8.455,8.455,0,0,0-2.529-6.221,8.487,8.487,0,0,0-6.221-2.6,8.343,8.343,0,0,0-6.221,2.6A8.343,8.343,0,0,0,0-88.115v47.646A40.035,40.035,0,0,0,12.373-11.279,40.231,40.231,0,0,0,41.7.82a40.231,40.231,0,0,0,29.326-12.1A40.279,40.279,0,0,0,83.467-40.469V-88.115a8.343,8.343,0,0,0-2.6-6.221A8.487,8.487,0,0,0,74.648-96.934Zm40.059,79.365V-40.2h27.207a10.616,10.616,0,0,1,7.861,3.35,10.8,10.8,0,0,1,3.281,7.93,11.031,11.031,0,0,1-3.281,8,11.047,11.047,0,0,1-7.93,3.35Zm34.727-51.2a10.376,10.376,0,0,1-3.076,7.52,10.038,10.038,0,0,1-7.451,3.145h-24.2V-79.434h24.2a10.392,10.392,0,0,1,7.451,3.145A10.376,10.376,0,0,1,149.434-68.77Zm11.074,17.979A27.437,27.437,0,0,0,167-68.77a27.155,27.155,0,0,0-8.2-19.824A26.948,26.948,0,0,0,139.043-97H107.256l-.41.068L106.367-97h-.41a8.343,8.343,0,0,0-6.221,2.6,8.343,8.343,0,0,0-2.6,6.221V-8.818a8.343,8.343,0,0,0,2.6,6.221A8.343,8.343,0,0,0,105.957,0h.41l.479-.068.41.068h34.932a27.8,27.8,0,0,0,20.1-8.613,27.926,27.926,0,0,0,8.34-20.3A27.605,27.605,0,0,0,160.508-50.791ZM227.295-16.2a31.246,31.246,0,0,1-22.832-9.434,31.246,31.246,0,0,1-9.434-22.832,31.02,31.02,0,0,1,9.434-22.764,31.246,31.246,0,0,1,22.832-9.434,31.02,31.02,0,0,1,22.764,9.434,31.02,31.02,0,0,1,9.434,22.764,31.246,31.246,0,0,1-9.434,22.832A31.02,31.02,0,0,1,227.295-16.2Zm0-82.031A47.96,47.96,0,0,0,192.09-83.672a47.993,47.993,0,0,0-14.629,35.205A47.848,47.848,0,0,0,192.09-13.262,47.848,47.848,0,0,0,227.295,1.367,47.993,47.993,0,0,0,262.5-13.262a47.96,47.96,0,0,0,14.561-35.205A48.106,48.106,0,0,0,262.5-83.672,48.106,48.106,0,0,0,227.295-98.232Zm76.221,80.664V-88.184a8.343,8.343,0,0,0-2.6-6.221,8.264,8.264,0,0,0-6.152-2.6,8.343,8.343,0,0,0-6.221,2.6,8.343,8.343,0,0,0-2.6,6.221V-8.818a8.343,8.343,0,0,0,2.6,6.221A8.343,8.343,0,0,0,294.766,0h40.2a8.487,8.487,0,0,0,6.221-2.6,8.455,8.455,0,0,0,2.529-6.221,8.6,8.6,0,0,0-2.529-6.221,8.6,8.6,0,0,0-6.221-2.529Zm71.436,0V-79.434h20.166a29.681,29.681,0,0,1,21.67,9.16,29.777,29.777,0,0,1,9.023,21.738A29.891,29.891,0,0,1,416.855-26.8a30,30,0,0,1-21.738,9.229ZM366.2-97a8.455,8.455,0,0,0-6.221,2.529,8.487,8.487,0,0,0-2.6,6.221V-8.818a8.343,8.343,0,0,0,2.6,6.221A8.343,8.343,0,0,0,366.2,0h29.258A46.493,46.493,0,0,0,429.3-14.424a46.784,46.784,0,0,0,14.15-34.111A46.637,46.637,0,0,0,429.3-82.646,46.86,46.86,0,0,0,395.186-97Z" transform="translate(0 98.232)" fill="#fff"/>
</svg>
